<svg width="16" height="16" viewBox="0 0 24 24" fill="none" xmlns="http://www.w3.org/2000/svg">
<path d="M23.498 6.186C23.187 4.994 22.258 4.065 21.066 3.754C19.244 3.25 12 3.25 12 3.25S4.756 3.25 2.934 3.754C1.742 4.065 0.813 4.994 0.502 6.186C0 8.008 0 12 0 12S0 15.992 0.502 17.814C0.813 19.006 1.742 19.935 2.934 20.246C4.756 20.75 12 20.75 12 20.75S19.244 20.75 21.066 20.246C22.258 19.935 23.187 19.006 23.498 17.814C24 15.992 24 12 24 12S24 8.008 23.498 6.186Z" fill="#FF0000"/>
<path d="M9.75 15.02L15.5 12L9.75 8.98V15.02Z" fill="white"/>
</svg>
